<?xml version="1.0" encoding="utf-8"?>
<!-- Generator: Adobe Illustrator 26.2.1, SVG Export Plug-In . SVG Version: 6.00 Build 0)  -->
<svg version="1.1" id="Layer_1" xmlns="http://www.w3.org/2000/svg" xmlns:xlink="http://www.w3.org/1999/xlink" x="0px" y="0px"
	 width="108px" height="792px" viewBox="0 0 108 792" enable-background="new 0 0 108 792" xml:space="preserve">
<g>
	<rect x="0.1" y="268.9" width="28.8" height="4"/>
</g>
<g>
	<rect x="0.1" y="170.3" width="28.8" height="4"/>
</g>
<g>
	<rect x="0.1" y="71.7" width="28.8" height="4"/>
</g>
<g>
	<path d="M43.1,69.2c0.3-0.1,0.6-0.1,0.9-0.2c0.3,0,0.6-0.1,0.9-0.1c1.2,0,2.3,0.2,3.3,0.6c1,0.4,1.8,1,2.5,1.8
		c0.7,0.7,1.2,1.6,1.6,2.6c0.4,1,0.6,2.1,0.6,3.3c0,1.3-0.2,2.5-0.7,3.6c-0.5,1.1-1.2,2-2,2.8c-0.9,0.8-1.9,1.4-3,1.8
		c-1.2,0.4-2.4,0.6-3.7,0.6c-1.3,0-2.6-0.2-3.7-0.6c-1.2-0.4-2.2-1-3-1.8c-0.9-0.8-1.5-1.7-2-2.8c-0.5-1.1-0.7-2.3-0.7-3.6
		c0-0.9,0.1-1.7,0.3-2.5c0.2-0.8,0.4-1.5,0.7-2.1c0.3-0.7,0.6-1.3,1-1.9c0.4-0.6,0.8-1.2,1.2-1.9l5.6-8.7H49L43.1,69.2z M47.4,77
		c0-1.2-0.4-2.1-1.1-2.9c-0.8-0.8-1.7-1.1-3-1.1s-2.2,0.4-3,1.1c-0.8,0.8-1.1,1.7-1.1,2.9c0,1.2,0.4,2.1,1.1,2.9
		c0.8,0.8,1.7,1.1,3,1.1s2.2-0.4,3-1.1C47.1,79.1,47.4,78.2,47.4,77z"/>
	<path d="M55.2,72.8c0-1.5,0.1-3,0.4-4.6c0.3-1.6,0.8-3,1.5-4.2c0.7-1.3,1.7-2.3,2.9-3.1c1.2-0.8,2.8-1.2,4.7-1.2s3.5,0.4,4.7,1.2
		c1.2,0.8,2.2,1.8,2.9,3.1c0.7,1.3,1.2,2.7,1.5,4.2c0.3,1.6,0.4,3.1,0.4,4.6c0,1.5-0.1,3-0.4,4.6c-0.3,1.6-0.8,3-1.5,4.2
		c-0.7,1.3-1.7,2.3-2.9,3.1S66.6,86,64.7,86s-3.5-0.4-4.7-1.2s-2.2-1.8-2.9-3.1c-0.7-1.3-1.2-2.7-1.5-4.2
		C55.4,75.9,55.2,74.3,55.2,72.8z M60.6,72.8c0,0.7,0,1.5,0.1,2.4c0.1,0.9,0.2,1.8,0.5,2.7c0.3,0.9,0.7,1.6,1.2,2.2
		c0.5,0.6,1.3,0.9,2.3,0.9c1,0,1.7-0.3,2.3-0.9c0.6-0.6,1-1.3,1.2-2.2c0.3-0.9,0.4-1.8,0.5-2.7s0.1-1.7,0.1-2.4c0-0.7,0-1.5-0.1-2.4
		c-0.1-0.9-0.2-1.8-0.5-2.7c-0.3-0.9-0.7-1.6-1.2-2.2c-0.6-0.6-1.3-0.9-2.3-0.9c-1,0-1.7,0.3-2.3,0.9s-0.9,1.3-1.2,2.2
		c-0.3,0.9-0.4,1.8-0.5,2.7C60.7,71.4,60.6,72.2,60.6,72.8z"/>
</g>
<g>
	<path d="M51.4,163.5H41.2l-0.1,3.9c0.6-0.2,1.3-0.3,2.3-0.3c1.3,0,2.5,0.2,3.6,0.6c1.1,0.4,2,0.9,2.8,1.7c0.8,0.7,1.4,1.6,1.8,2.7
		c0.4,1,0.6,2.2,0.6,3.5c0,1.4-0.2,2.7-0.7,3.9c-0.5,1.1-1.2,2.1-2,2.9c-0.9,0.8-1.9,1.4-3.1,1.8c-1.2,0.4-2.5,0.6-3.9,0.6
		c-2.2,0-4.1-0.5-5.5-1.6s-2.5-2.7-3.1-4.9l5.7-1.3c0.1,0.9,0.5,1.7,1.2,2.2c0.6,0.6,1.4,0.8,2.3,0.8c1.2,0,2.1-0.4,2.8-1.1
		c0.7-0.7,1-1.6,1-2.7c0-0.8-0.2-1.5-0.5-2.1c-0.3-0.5-0.8-1-1.4-1.3c-0.6-0.3-1.2-0.5-1.9-0.7c-0.7-0.1-1.4-0.2-2.1-0.2
		c-0.9,0-1.8,0.1-2.7,0.3c-0.9,0.2-1.8,0.4-2.6,0.7l0.3-14.1h15.4V163.5z"/>
	<path d="M55.2,171.5c0-1.5,0.1-3,0.4-4.6c0.3-1.6,0.8-3,1.5-4.2c0.7-1.3,1.7-2.3,2.9-3.1c1.2-0.8,2.8-1.2,4.7-1.2s3.5,0.4,4.7,1.2
		c1.2,0.8,2.2,1.8,2.9,3.1c0.7,1.3,1.2,2.7,1.5,4.2c0.3,1.6,0.4,3.1,0.4,4.6c0,1.5-0.1,3-0.4,4.6c-0.3,1.6-0.8,3-1.5,4.2
		c-0.7,1.3-1.7,2.3-2.9,3.1s-2.8,1.2-4.7,1.2s-3.5-0.4-4.7-1.2s-2.2-1.8-2.9-3.1c-0.7-1.3-1.2-2.7-1.5-4.2
		C55.4,174.5,55.2,173,55.2,171.5z M60.6,171.5c0,0.7,0,1.5,0.1,2.4c0.1,0.9,0.2,1.8,0.5,2.7c0.3,0.9,0.7,1.6,1.2,2.2
		c0.5,0.6,1.3,0.9,2.3,0.9c1,0,1.7-0.3,2.3-0.9c0.6-0.6,1-1.3,1.2-2.2c0.3-0.9,0.4-1.8,0.5-2.7s0.1-1.7,0.1-2.4c0-0.7,0-1.5-0.1-2.4
		c-0.1-0.9-0.2-1.8-0.5-2.7c-0.3-0.9-0.7-1.6-1.2-2.2c-0.6-0.6-1.3-0.9-2.3-0.9c-1,0-1.7,0.3-2.3,0.9s-0.9,1.3-1.2,2.2
		c-0.3,0.9-0.4,1.8-0.5,2.7C60.7,170,60.6,170.8,60.6,171.5z"/>
</g>
<g>
	<path d="M44.7,277.7H33.6v-4.5L44,257.4h5.9v15.8h3.3v4.5h-3.3v5.1h-5.2V277.7z M44.7,264.4L44.7,264.4l-5.7,8.8h5.7V264.4z"/>
	<path d="M55.2,270.1c0-1.5,0.1-3,0.4-4.6c0.3-1.6,0.8-3,1.5-4.2c0.7-1.3,1.7-2.3,2.9-3.1c1.2-0.8,2.8-1.2,4.7-1.2s3.5,0.4,4.7,1.2
		c1.2,0.8,2.2,1.8,2.9,3.1c0.7,1.3,1.2,2.7,1.5,4.2c0.3,1.6,0.4,3.1,0.4,4.6c0,1.5-0.1,3-0.4,4.6c-0.3,1.6-0.8,3-1.5,4.2
		c-0.7,1.3-1.7,2.3-2.9,3.1s-2.8,1.2-4.7,1.2s-3.5-0.4-4.7-1.2s-2.2-1.8-2.9-3.1c-0.7-1.3-1.2-2.7-1.5-4.2
		C55.4,273.2,55.2,271.6,55.2,270.1z M60.6,270.1c0,0.7,0,1.5,0.1,2.4c0.1,0.9,0.2,1.8,0.5,2.7c0.3,0.9,0.7,1.6,1.2,2.2
		c0.5,0.6,1.3,0.9,2.3,0.9c1,0,1.7-0.3,2.3-0.9c0.6-0.6,1-1.3,1.2-2.2c0.3-0.9,0.4-1.8,0.5-2.7s0.1-1.7,0.1-2.4c0-0.7,0-1.5-0.1-2.4
		c-0.1-0.9-0.2-1.8-0.5-2.7c-0.3-0.9-0.7-1.6-1.2-2.2c-0.6-0.6-1.3-0.9-2.3-0.9c-1,0-1.7,0.3-2.3,0.9s-0.9,1.3-1.2,2.2
		c-0.3,0.9-0.4,1.8-0.5,2.7C60.7,268.6,60.6,269.4,60.6,270.1z"/>
</g>
<g>
	<path d="M40.5,370.4h1.8c0.5,0,1,0,1.5-0.1c0.5-0.1,0.9-0.2,1.3-0.4c0.4-0.2,0.7-0.5,1-0.9c0.2-0.4,0.4-0.9,0.4-1.5
		c0-0.8-0.3-1.4-0.9-1.9c-0.6-0.5-1.4-0.8-2.2-0.8c-0.8,0-1.5,0.2-2.1,0.7c-0.6,0.5-0.9,1-1.1,1.7l-5.9-1.2c0.3-1.1,0.7-2,1.3-2.8
		c0.6-0.8,1.3-1.4,2.1-1.9c0.8-0.5,1.7-0.8,2.6-1.1c1-0.2,2-0.3,3.1-0.3c1.1,0,2.2,0.1,3.3,0.4c1,0.3,2,0.7,2.8,1.3
		c0.8,0.6,1.4,1.3,1.9,2.2c0.5,0.9,0.7,1.9,0.7,3.2c0,1.4-0.4,2.6-1.1,3.6c-0.7,1-1.8,1.7-3.2,1.9v0.1c0.8,0.1,1.4,0.3,2,0.7
		c0.6,0.4,1.1,0.8,1.5,1.3c0.4,0.5,0.7,1.1,0.9,1.8c0.2,0.7,0.3,1.4,0.3,2.1c0,1.3-0.2,2.4-0.7,3.3c-0.5,1-1.2,1.8-2,2.4
		c-0.8,0.6-1.8,1.1-2.9,1.4c-1.1,0.3-2.3,0.5-3.5,0.5c-2.3,0-4.2-0.5-5.9-1.6c-1.6-1.1-2.7-2.7-3.3-5l5.7-1.3
		c0.2,0.9,0.6,1.6,1.2,2.2c0.6,0.5,1.5,0.8,2.6,0.8c1.2,0,2-0.3,2.6-0.9c0.6-0.6,0.8-1.4,0.8-2.4c0-0.7-0.2-1.3-0.5-1.7
		c-0.3-0.4-0.7-0.7-1.2-0.9c-0.5-0.2-1-0.3-1.6-0.3c-0.6,0-1.2-0.1-1.8-0.1h-1.3V370.4z"/>
	<path d="M55.2,373.1c0-1.5,0.1-3,0.4-4.6c0.3-1.6,0.8-3,1.5-4.2c0.7-1.3,1.7-2.3,2.9-3.1c1.2-0.8,2.8-1.2,4.7-1.2s3.5,0.4,4.7,1.2
		c1.2,0.8,2.2,1.8,2.9,3.1c0.7,1.3,1.2,2.7,1.5,4.2c0.3,1.6,0.4,3.1,0.4,4.6c0,1.5-0.1,3-0.4,4.6c-0.3,1.6-0.8,3-1.5,4.2
		c-0.7,1.3-1.7,2.3-2.9,3.1s-2.8,1.2-4.7,1.2s-3.5-0.4-4.7-1.2s-2.2-1.8-2.9-3.1c-0.7-1.3-1.2-2.7-1.5-4.2
		C55.4,376.1,55.2,374.6,55.2,373.1z M60.6,373.1c0,0.7,0,1.5,0.1,2.4c0.1,0.9,0.2,1.8,0.5,2.7c0.3,0.9,0.7,1.6,1.2,2.2
		c0.5,0.6,1.3,0.9,2.3,0.9c1,0,1.7-0.3,2.3-0.9c0.6-0.6,1-1.3,1.2-2.2c0.3-0.9,0.4-1.8,0.5-2.7s0.1-1.7,0.1-2.4c0-0.7,0-1.5-0.1-2.4
		c-0.1-0.9-0.2-1.8-0.5-2.7c-0.3-0.9-0.7-1.6-1.2-2.2c-0.6-0.6-1.3-0.9-2.3-0.9c-1,0-1.7,0.3-2.3,0.9s-0.9,1.3-1.2,2.2
		c-0.3,0.9-0.4,1.8-0.5,2.7C60.7,371.6,60.6,372.4,60.6,373.1z"/>
</g>
<g>
	<path d="M34.5,493.8l9.9-8.9c0.5-0.5,1-1,1.5-1.5c0.5-0.6,0.8-1.2,0.8-2c0-0.9-0.3-1.5-0.9-2c-0.6-0.5-1.4-0.7-2.2-0.7
		c-1,0-1.8,0.3-2.4,0.9s-0.9,1.4-1,2.3l-5.4-0.4c0.1-1.3,0.3-2.5,0.8-3.4c0.5-1,1.1-1.8,1.9-2.4c0.8-0.6,1.7-1.1,2.8-1.5
		s2.2-0.5,3.5-0.5c1.2,0,2.2,0.2,3.2,0.5c1,0.3,1.9,0.8,2.6,1.4c0.7,0.6,1.3,1.4,1.7,2.4c0.4,1,0.6,2.1,0.6,3.3
		c0,0.8-0.1,1.6-0.3,2.2c-0.2,0.7-0.4,1.3-0.7,1.8c-0.3,0.5-0.7,1-1.1,1.5c-0.4,0.5-0.9,0.9-1.3,1.3l-7.7,6.7h11.3v4.8H34.5V493.8z"
		/>
	<path d="M55.2,486.8c0-1.5,0.1-3,0.4-4.6c0.3-1.6,0.8-3,1.5-4.2c0.7-1.3,1.7-2.3,2.9-3.1c1.2-0.8,2.8-1.2,4.7-1.2s3.5,0.4,4.7,1.2
		c1.2,0.8,2.2,1.8,2.9,3.1c0.7,1.3,1.2,2.7,1.5,4.2c0.3,1.6,0.4,3.1,0.4,4.6c0,1.5-0.1,3-0.4,4.6c-0.3,1.6-0.8,3-1.5,4.2
		c-0.7,1.3-1.7,2.3-2.9,3.1s-2.8,1.2-4.7,1.2s-3.5-0.4-4.7-1.2s-2.2-1.8-2.9-3.1c-0.7-1.3-1.2-2.7-1.5-4.2
		C55.4,489.9,55.2,488.3,55.2,486.8z M60.6,486.8c0,0.7,0,1.5,0.1,2.4c0.1,0.9,0.2,1.8,0.5,2.7c0.3,0.9,0.7,1.6,1.2,2.2
		s1.3,0.9,2.3,0.9c1,0,1.7-0.3,2.3-0.9c0.6-0.6,1-1.3,1.2-2.2c0.3-0.9,0.4-1.8,0.5-2.7c0.1-0.9,0.1-1.7,0.1-2.4c0-0.7,0-1.5-0.1-2.4
		c-0.1-0.9-0.2-1.8-0.5-2.7c-0.3-0.9-0.7-1.6-1.2-2.2c-0.6-0.6-1.3-0.9-2.3-0.9c-1,0-1.7,0.3-2.3,0.9c-0.5,0.6-0.9,1.3-1.2,2.2
		c-0.3,0.9-0.4,1.8-0.5,2.7C60.7,485.4,60.6,486.2,60.6,486.8z"/>
</g>
<g>
	<path d="M43.1,598.2l-5.1,4.5l-3.1-3.5l8.3-7h5v25.5h-5.2V598.2z"/>
	<path d="M55.2,604.9c0-1.5,0.1-3,0.4-4.6c0.3-1.6,0.8-3,1.5-4.2c0.7-1.3,1.7-2.3,2.9-3.1s2.8-1.2,4.7-1.2s3.5,0.4,4.7,1.2
		s2.2,1.8,2.9,3.1c0.7,1.3,1.2,2.7,1.5,4.2c0.3,1.6,0.4,3.1,0.4,4.6s-0.1,3-0.4,4.6c-0.3,1.6-0.8,3-1.5,4.2
		c-0.7,1.3-1.7,2.3-2.9,3.1s-2.8,1.2-4.7,1.2s-3.5-0.4-4.7-1.2s-2.2-1.8-2.9-3.1c-0.7-1.3-1.2-2.7-1.5-4.2
		C55.4,608,55.2,606.4,55.2,604.9z M60.6,604.9c0,0.7,0,1.5,0.1,2.4c0.1,0.9,0.2,1.8,0.5,2.7c0.3,0.9,0.7,1.6,1.2,2.2
		c0.5,0.6,1.3,0.9,2.3,0.9c1,0,1.7-0.3,2.3-0.9c0.6-0.6,1-1.3,1.2-2.2c0.3-0.9,0.4-1.8,0.5-2.7c0.1-0.9,0.1-1.7,0.1-2.4
		s0-1.5-0.1-2.4s-0.2-1.8-0.5-2.7c-0.3-0.9-0.7-1.6-1.2-2.2c-0.6-0.6-1.3-0.9-2.3-0.9c-1,0-1.7,0.3-2.3,0.9
		c-0.5,0.6-0.9,1.3-1.2,2.2c-0.3,0.9-0.4,1.8-0.5,2.7C60.7,603.4,60.6,604.2,60.6,604.9z"/>
</g>
<g>
	<g>
		<rect x="0.1" y="603.7" width="28.8" height="4"/>
	</g>
	<g>
		<rect x="79.3" y="603.7" width="28.8" height="4"/>
	</g>
</g>
<g>
	<g>
		<rect x="0.1" y="485.7" width="28.8" height="4"/>
	</g>
	<g>
		<rect x="79.3" y="485.7" width="28.8" height="4"/>
	</g>
</g>
<g>
	<g>
		<rect x="0.1" y="371.9" width="28.8" height="4"/>
	</g>
	<g>
		<rect x="79.3" y="371.9" width="28.8" height="4"/>
	</g>
</g>
<g>
	<rect x="79.3" y="268.9" width="28.8" height="4"/>
</g>
<g>
	<rect x="79.3" y="170.3" width="28.8" height="4"/>
</g>
<g>
	<rect x="79.3" y="71.7" width="28.8" height="4"/>
</g>
<g>
	<rect x="0.1" y="673.7" width="108" height="4"/>
</g>
<g>
	<rect x="0.1" y="544.7" width="108" height="4"/>
</g>
<g>
	<rect x="0.1" y="428.8" width="108" height="4"/>
</g>
<g>
	<rect x="0.1" y="219.3" width="108" height="4"/>
</g>
<g>
	<rect x="0.1" y="120.7" width="108" height="4"/>
</g>
<g>
	<rect x="0.1" y="320.4" width="108" height="4"/>
</g>
<g>
	<rect x="0.1" y="22.3" width="108" height="4"/>
</g>
<g>
	<g>
		<rect x="0.1" y="384.3" width="18" height="2"/>
	</g>
	<g>
		<rect x="90.1" y="384.3" width="18" height="2"/>
	</g>
</g>
<g>
	<g>
		<rect x="0.1" y="395.6" width="18" height="2"/>
	</g>
	<g>
		<rect x="90.1" y="395.6" width="18" height="2"/>
	</g>
</g>
<g>
	<g>
		<rect x="0.1" y="407" width="18" height="2"/>
	</g>
	<g>
		<rect x="90.1" y="407" width="18" height="2"/>
	</g>
</g>
<g>
	<g>
		<rect x="0.1" y="418.4" width="18" height="2"/>
	</g>
	<g>
		<rect x="90.1" y="418.4" width="18" height="2"/>
	</g>
</g>
<g>
	<g>
		<rect x="0.1" y="441.2" width="18" height="2"/>
	</g>
	<g>
		<rect x="90.1" y="441.2" width="18" height="2"/>
	</g>
</g>
<g>
	<g>
		<rect x="0.1" y="452.5" width="18" height="2"/>
	</g>
	<g>
		<rect x="90.1" y="452.5" width="18" height="2"/>
	</g>
</g>
<g>
	<g>
		<rect x="0.1" y="463.9" width="18" height="2"/>
	</g>
	<g>
		<rect x="90.1" y="463.9" width="18" height="2"/>
	</g>
</g>
<g>
	<g>
		<rect x="0.1" y="475.3" width="18" height="2"/>
	</g>
	<g>
		<rect x="90.1" y="475.3" width="18" height="2"/>
	</g>
</g>
<g>
	<g>
		<rect x="0.1" y="498.5" width="18" height="2"/>
	</g>
	<g>
		<rect x="90.1" y="498.5" width="18" height="2"/>
	</g>
</g>
<g>
	<g>
		<rect x="0.1" y="510.3" width="18" height="2"/>
	</g>
	<g>
		<rect x="90.1" y="510.3" width="18" height="2"/>
	</g>
</g>
<g>
	<g>
		<rect x="0.1" y="522.1" width="18" height="2"/>
	</g>
	<g>
		<rect x="90.1" y="522.1" width="18" height="2"/>
	</g>
</g>
<g>
	<g>
		<rect x="0.1" y="533.9" width="18" height="2"/>
	</g>
	<g>
		<rect x="90.1" y="533.9" width="18" height="2"/>
	</g>
</g>
<g>
	<g>
		<rect x="0.1" y="557.5" width="18" height="2"/>
	</g>
	<g>
		<rect x="90.1" y="557.5" width="18" height="2"/>
	</g>
</g>
<g>
	<g>
		<rect x="0.1" y="569.3" width="18" height="2"/>
	</g>
	<g>
		<rect x="90.1" y="569.3" width="18" height="2"/>
	</g>
</g>
<g>
	<g>
		<rect x="0.1" y="581.1" width="18" height="2"/>
	</g>
	<g>
		<rect x="90.1" y="581.1" width="18" height="2"/>
	</g>
</g>
<g>
	<g>
		<rect x="0.1" y="592.9" width="18" height="2"/>
	</g>
	<g>
		<rect x="90.1" y="592.9" width="18" height="2"/>
	</g>
</g>
<g>
	<g>
		<rect x="0.1" y="618.7" width="18" height="2"/>
	</g>
	<g>
		<rect x="90.1" y="618.7" width="18" height="2"/>
	</g>
</g>
<g>
	<g>
		<rect x="0.1" y="632.7" width="18" height="2"/>
	</g>
	<g>
		<rect x="90.1" y="632.7" width="18" height="2"/>
	</g>
</g>
<g>
	<g>
		<rect x="0.1" y="646.7" width="18" height="2"/>
	</g>
	<g>
		<rect x="90.1" y="646.7" width="18" height="2"/>
	</g>
</g>
<g>
	<g>
		<rect x="0.1" y="660.7" width="18" height="2"/>
	</g>
	<g>
		<rect x="90.1" y="660.7" width="18" height="2"/>
	</g>
</g>
<g>
	<g>
		<rect x="0.1" y="230.2" width="18" height="2"/>
	</g>
	<g>
		<rect x="90.1" y="230.2" width="18" height="2"/>
	</g>
</g>
<g>
	<g>
		<rect x="0.1" y="240.2" width="18" height="2"/>
	</g>
	<g>
		<rect x="90.1" y="240.2" width="18" height="2"/>
	</g>
</g>
<g>
	<g>
		<rect x="0.1" y="250.1" width="18" height="2"/>
	</g>
	<g>
		<rect x="90.1" y="250.1" width="18" height="2"/>
	</g>
</g>
<g>
	<g>
		<rect x="0.1" y="260" width="18" height="2"/>
	</g>
	<g>
		<rect x="90.1" y="260" width="18" height="2"/>
	</g>
</g>
<g>
	<g>
		<rect x="0.1" y="280.2" width="18" height="2"/>
	</g>
	<g>
		<rect x="90.1" y="280.2" width="18" height="2"/>
	</g>
</g>
<g>
	<g>
		<rect x="0.1" y="290.5" width="18" height="2"/>
	</g>
	<g>
		<rect x="90.1" y="290.5" width="18" height="2"/>
	</g>
</g>
<g>
	<g>
		<rect x="0.1" y="300.8" width="18" height="2"/>
	</g>
	<g>
		<rect x="90.1" y="300.8" width="18" height="2"/>
	</g>
</g>
<g>
	<g>
		<rect x="0.1" y="311.1" width="18" height="2"/>
	</g>
	<g>
		<rect x="90.1" y="311.1" width="18" height="2"/>
	</g>
</g>
<g>
	<g>
		<rect x="0.1" y="131.6" width="18" height="2"/>
	</g>
	<g>
		<rect x="90.1" y="131.6" width="18" height="2"/>
	</g>
</g>
<g>
	<g>
		<rect x="0.1" y="141.5" width="18" height="2"/>
	</g>
	<g>
		<rect x="90.1" y="141.5" width="18" height="2"/>
	</g>
</g>
<g>
	<g>
		<rect x="0.1" y="151.4" width="18" height="2"/>
	</g>
	<g>
		<rect x="90.1" y="151.4" width="18" height="2"/>
	</g>
</g>
<g>
	<g>
		<rect x="0.1" y="161.4" width="18" height="2"/>
	</g>
	<g>
		<rect x="90.1" y="161.4" width="18" height="2"/>
	</g>
</g>
<g>
	<g>
		<rect x="0.1" y="181.1" width="18" height="2"/>
	</g>
	<g>
		<rect x="90.1" y="181.1" width="18" height="2"/>
	</g>
</g>
<g>
	<g>
		<rect x="0.1" y="190.9" width="18" height="2"/>
	</g>
	<g>
		<rect x="90.1" y="190.9" width="18" height="2"/>
	</g>
</g>
<g>
	<g>
		<rect x="0.1" y="200.7" width="18" height="2"/>
	</g>
	<g>
		<rect x="90.1" y="200.7" width="18" height="2"/>
	</g>
</g>
<g>
	<g>
		<rect x="0.1" y="210.5" width="18" height="2"/>
	</g>
	<g>
		<rect x="90.1" y="210.5" width="18" height="2"/>
	</g>
</g>
<g>
	<g>
		<rect x="0.1" y="33.2" width="18" height="2"/>
	</g>
	<g>
		<rect x="90.1" y="33.2" width="18" height="2"/>
	</g>
</g>
<g>
	<g>
		<rect x="0.1" y="43.1" width="18" height="2"/>
	</g>
	<g>
		<rect x="90.1" y="43.1" width="18" height="2"/>
	</g>
</g>
<g>
	<g>
		<rect x="0.1" y="52.9" width="18" height="2"/>
	</g>
	<g>
		<rect x="90.1" y="52.9" width="18" height="2"/>
	</g>
</g>
<g>
	<g>
		<rect x="0.1" y="62.8" width="18" height="2"/>
	</g>
	<g>
		<rect x="90.1" y="62.8" width="18" height="2"/>
	</g>
</g>
<g>
	<g>
		<rect x="0.1" y="82.5" width="18" height="2"/>
	</g>
	<g>
		<rect x="90.1" y="82.5" width="18" height="2"/>
	</g>
</g>
<g>
	<g>
		<rect x="0.1" y="92.3" width="18" height="2"/>
	</g>
	<g>
		<rect x="90.1" y="92.3" width="18" height="2"/>
	</g>
</g>
<g>
	<g>
		<rect x="0.1" y="102.1" width="18" height="2"/>
	</g>
	<g>
		<rect x="90.1" y="102.1" width="18" height="2"/>
	</g>
</g>
<g>
	<g>
		<rect x="0.1" y="111.9" width="18" height="2"/>
	</g>
	<g>
		<rect x="90.1" y="111.9" width="18" height="2"/>
	</g>
</g>
<g>
	<g>
		<rect x="0.1" y="331.7" width="18" height="2"/>
	</g>
	<g>
		<rect x="90.1" y="331.7" width="18" height="2"/>
	</g>
</g>
<g>
	<g>
		<rect x="0.1" y="342" width="18" height="2"/>
	</g>
	<g>
		<rect x="90.1" y="342" width="18" height="2"/>
	</g>
</g>
<g>
	<g>
		<rect x="0.1" y="352.3" width="18" height="2"/>
	</g>
	<g>
		<rect x="90.1" y="352.3" width="18" height="2"/>
	</g>
</g>
<g>
	<g>
		<rect x="0.1" y="362.6" width="18" height="2"/>
	</g>
	<g>
		<rect x="90.1" y="362.6" width="18" height="2"/>
	</g>
</g>
</svg>
