<?xml version="1.0" encoding="utf-8"?>
<!-- Generator: Adobe Illustrator 26.2.1, SVG Export Plug-In . SVG Version: 6.00 Build 0)  -->
<svg version="1.1" id="Layer_2" xmlns="http://www.w3.org/2000/svg" xmlns:xlink="http://www.w3.org/1999/xlink" x="0px" y="0px"
	 width="108px" height="792px" viewBox="0 0 108 792" enable-background="new 0 0 108 792" xml:space="preserve">
<g>
	<g>
		<rect x="0.1" y="444.1" width="18" height="3"/>
	</g>
	<g>
		<rect x="90.1" y="444.1" width="18" height="3"/>
	</g>
</g>
<g>
	<g>
		<rect x="0.1" y="458.9" width="18" height="3"/>
	</g>
	<g>
		<rect x="90.1" y="458.9" width="18" height="3"/>
	</g>
</g>
<g>
	<g>
		<rect x="0.1" y="473.7" width="18" height="3"/>
	</g>
	<g>
		<rect x="90.1" y="473.7" width="18" height="3"/>
	</g>
</g>
<g>
	<g>
		<rect x="0.1" y="488.5" width="18" height="3"/>
	</g>
	<g>
		<rect x="90.1" y="488.5" width="18" height="3"/>
	</g>
</g>
<g>
	<g>
		<rect x="0.1" y="518.9" width="18" height="3"/>
	</g>
	<g>
		<rect x="90.1" y="518.9" width="18" height="3"/>
	</g>
</g>
<g>
	<g>
		<rect x="0.1" y="534.5" width="18" height="3"/>
	</g>
	<g>
		<rect x="90.1" y="534.5" width="18" height="3"/>
	</g>
</g>
<g>
	<g>
		<rect x="0.1" y="550.1" width="18" height="3"/>
	</g>
	<g>
		<rect x="90.1" y="550.1" width="18" height="3"/>
	</g>
</g>
<g>
	<g>
		<rect x="0.1" y="565.7" width="18" height="3"/>
	</g>
	<g>
		<rect x="90.1" y="565.7" width="18" height="3"/>
	</g>
</g>
<g>
	<g>
		<rect x="0.1" y="597" width="18" height="3"/>
	</g>
	<g>
		<rect x="90.1" y="597" width="18" height="3"/>
	</g>
</g>
<g>
	<g>
		<rect x="0.1" y="612.6" width="18" height="3"/>
	</g>
	<g>
		<rect x="90.1" y="612.6" width="18" height="3"/>
	</g>
</g>
<g>
	<g>
		<rect x="0.1" y="628.2" width="18" height="3"/>
	</g>
	<g>
		<rect x="90.1" y="628.2" width="18" height="3"/>
	</g>
</g>
<g>
	<g>
		<rect x="0.1" y="643.9" width="18" height="3"/>
	</g>
	<g>
		<rect x="90.1" y="643.9" width="18" height="3"/>
	</g>
</g>
<g>
	<g>
		<rect x="0.1" y="308.9" width="18" height="3"/>
	</g>
	<g>
		<rect x="90.1" y="308.9" width="18" height="3"/>
	</g>
</g>
<g>
	<g>
		<rect x="0.1" y="322.2" width="18" height="3"/>
	</g>
	<g>
		<rect x="90.1" y="322.2" width="18" height="3"/>
	</g>
</g>
<g>
	<g>
		<rect x="0.1" y="335.6" width="18" height="3"/>
	</g>
	<g>
		<rect x="90.1" y="335.6" width="18" height="3"/>
	</g>
</g>
<g>
	<g>
		<rect x="0.1" y="349" width="18" height="3"/>
	</g>
	<g>
		<rect x="90.1" y="349" width="18" height="3"/>
	</g>
</g>
<g>
	<g>
		<rect x="0.1" y="375.7" width="18" height="3"/>
	</g>
	<g>
		<rect x="90.1" y="375.7" width="18" height="3"/>
	</g>
</g>
<g>
	<g>
		<rect x="0.1" y="389.1" width="18" height="3"/>
	</g>
	<g>
		<rect x="90.1" y="389.1" width="18" height="3"/>
	</g>
</g>
<g>
	<g>
		<rect x="0.1" y="402.5" width="18" height="3"/>
	</g>
	<g>
		<rect x="90.1" y="402.5" width="18" height="3"/>
	</g>
</g>
<g>
	<g>
		<rect x="0.1" y="415.9" width="18" height="3"/>
	</g>
	<g>
		<rect x="90.1" y="415.9" width="18" height="3"/>
	</g>
</g>
<g>
	<g>
		<rect x="0.1" y="183.6" width="18" height="3"/>
	</g>
	<g>
		<rect x="90.1" y="183.6" width="18" height="3"/>
	</g>
</g>
<g>
	<g>
		<rect x="0.1" y="195.7" width="18" height="3"/>
	</g>
	<g>
		<rect x="90.1" y="195.7" width="18" height="3"/>
	</g>
</g>
<g>
	<g>
		<rect x="0.1" y="207.8" width="18" height="3"/>
	</g>
	<g>
		<rect x="90.1" y="207.8" width="18" height="3"/>
	</g>
</g>
<g>
	<g>
		<rect x="0.1" y="219.9" width="18" height="3"/>
	</g>
	<g>
		<rect x="90.1" y="219.9" width="18" height="3"/>
	</g>
</g>
<g>
	<g>
		<rect x="0.1" y="245.1" width="18" height="3"/>
	</g>
	<g>
		<rect x="90.1" y="245.1" width="18" height="3"/>
	</g>
</g>
<g>
	<g>
		<rect x="0.1" y="258.2" width="18" height="3"/>
	</g>
	<g>
		<rect x="90.1" y="258.2" width="18" height="3"/>
	</g>
</g>
<g>
	<g>
		<rect x="0.1" y="271.3" width="18" height="3"/>
	</g>
	<g>
		<rect x="90.1" y="271.3" width="18" height="3"/>
	</g>
</g>
<g>
	<g>
		<rect x="0.1" y="284.4" width="18" height="3"/>
	</g>
	<g>
		<rect x="90.1" y="284.4" width="18" height="3"/>
	</g>
</g>
<g>
	<g>
		<rect x="0.1" y="118.9" width="18" height="3"/>
	</g>
	<g>
		<rect x="90.1" y="118.9" width="18" height="3"/>
	</g>
</g>
<g>
	<g>
		<rect x="0.1" y="132.1" width="18" height="3"/>
	</g>
	<g>
		<rect x="90.1" y="132.1" width="18" height="3"/>
	</g>
</g>
<g>
	<g>
		<rect x="0.1" y="145.2" width="18" height="3"/>
	</g>
	<g>
		<rect x="90.1" y="145.2" width="18" height="3"/>
	</g>
</g>
<g>
	<g>
		<rect x="0.1" y="158.4" width="18" height="3"/>
	</g>
	<g>
		<rect x="90.1" y="158.4" width="18" height="3"/>
	</g>
</g>
<g>
	<g>
		<rect x="0.1" y="55.4" width="18" height="3"/>
	</g>
	<g>
		<rect x="90.1" y="55.4" width="18" height="3"/>
	</g>
</g>
<g>
	<g>
		<rect x="0.1" y="68" width="18" height="3"/>
	</g>
	<g>
		<rect x="90.1" y="68" width="18" height="3"/>
	</g>
</g>
<g>
	<g>
		<rect x="0.1" y="80.6" width="18" height="3"/>
	</g>
	<g>
		<rect x="90.1" y="80.6" width="18" height="3"/>
	</g>
</g>
<g>
	<g>
		<rect x="0.1" y="93.2" width="18" height="3"/>
	</g>
	<g>
		<rect x="90.1" y="93.2" width="18" height="3"/>
	</g>
</g>
<g>
	<g>
		<rect x="0.3" y="5.4" width="18" height="3"/>
	</g>
	<g>
		<rect x="90.3" y="5.4" width="18" height="3"/>
	</g>
</g>
<g>
	<g>
		<rect x="0.3" y="18" width="18" height="3"/>
	</g>
	<g>
		<rect x="90.3" y="18" width="18" height="3"/>
	</g>
</g>
<g>
	<g>
		<rect x="0.3" y="30.6" width="18" height="3"/>
	</g>
	<g>
		<rect x="90.3" y="30.6" width="18" height="3"/>
	</g>
</g>
</svg>
