<?xml version="1.0" encoding="utf-8"?>
<!-- Generator: Adobe Illustrator 26.2.1, SVG Export Plug-In . SVG Version: 6.00 Build 0)  -->
<svg version="1.1" xmlns="http://www.w3.org/2000/svg" xmlns:xlink="http://www.w3.org/1999/xlink" x="0px" y="0px" width="108px"
	 height="792px" viewBox="0 0 108 792" enable-background="new 0 0 108 792" xml:space="preserve">
<g id="Layer_1">
	<g>
		<rect x="0.1" y="171" width="28.8" height="4"/>
	</g>
	<g>
		<rect x="0.1" y="42.3" width="28.8" height="4"/>
	</g>
	<g>
		<g>
			<path d="M51.4,35.5H41.2l-0.1,3.9c0.6-0.2,1.3-0.3,2.3-0.3c1.3,0,2.5,0.2,3.6,0.6c1.1,0.4,2,0.9,2.8,1.7c0.8,0.7,1.4,1.6,1.8,2.7
				c0.4,1,0.6,2.2,0.6,3.5c0,1.4-0.2,2.7-0.7,3.9c-0.5,1.1-1.2,2.1-2,2.9c-0.9,0.8-1.9,1.4-3.1,1.8c-1.2,0.4-2.5,0.6-3.9,0.6
				c-2.2,0-4.1-0.5-5.5-1.6s-2.5-2.7-3.1-4.9l5.7-1.3c0.1,0.9,0.5,1.7,1.2,2.2c0.6,0.6,1.4,0.8,2.3,0.8c1.2,0,2.1-0.4,2.8-1.1
				c0.7-0.7,1-1.6,1-2.7c0-0.8-0.2-1.5-0.5-2.1c-0.3-0.5-0.8-1-1.4-1.3c-0.6-0.3-1.2-0.5-1.9-0.7c-0.7-0.1-1.4-0.2-2.1-0.2
				c-0.9,0-1.8,0.1-2.7,0.3c-0.9,0.2-1.8,0.4-2.6,0.7l0.3-14.1h15.4V35.5z"/>
		</g>
		<g>
			<path d="M55.2,43.5c0-1.5,0.1-3,0.4-4.6c0.3-1.6,0.8-3,1.5-4.2c0.7-1.3,1.7-2.3,2.9-3.1c1.2-0.8,2.8-1.2,4.7-1.2s3.5,0.4,4.7,1.2
				c1.2,0.8,2.2,1.8,2.9,3.1c0.7,1.3,1.2,2.7,1.5,4.2c0.3,1.6,0.4,3.1,0.4,4.6c0,1.5-0.1,3-0.4,4.6c-0.3,1.6-0.8,3-1.5,4.2
				c-0.7,1.3-1.7,2.3-2.9,3.1s-2.8,1.2-4.7,1.2s-3.5-0.4-4.7-1.2s-2.2-1.8-2.9-3.1c-0.7-1.3-1.2-2.7-1.5-4.2
				C55.4,46.5,55.2,45,55.2,43.5z M60.6,43.5c0,0.7,0,1.5,0.1,2.4c0.1,0.9,0.2,1.8,0.5,2.7c0.3,0.9,0.7,1.6,1.2,2.2
				c0.5,0.6,1.3,0.9,2.3,0.9c1,0,1.7-0.3,2.3-0.9c0.6-0.6,1-1.3,1.2-2.2c0.3-0.9,0.4-1.8,0.5-2.7s0.1-1.7,0.1-2.4
				c0-0.7,0-1.5-0.1-2.4c-0.1-0.9-0.2-1.8-0.5-2.7c-0.3-0.9-0.7-1.6-1.2-2.2c-0.6-0.6-1.3-0.9-2.3-0.9c-1,0-1.7,0.3-2.3,0.9
				s-0.9,1.3-1.2,2.2c-0.3,0.9-0.4,1.8-0.5,2.7C60.7,42,60.6,42.8,60.6,43.5z"/>
		</g>
	</g>
	<g>
		<g>
			<path d="M44.7,179.8H33.6v-4.5L44,159.4h5.9v15.8h3.3v4.5h-3.3v5.1h-5.2V179.8z M44.7,166.5L44.7,166.5l-5.7,8.8h5.7V166.5z"/>
		</g>
		<g>
			<path d="M55.2,172.2c0-1.5,0.1-3,0.4-4.6c0.3-1.6,0.8-3,1.5-4.2c0.7-1.3,1.7-2.3,2.9-3.1c1.2-0.8,2.8-1.2,4.7-1.2
				s3.5,0.4,4.7,1.2c1.2,0.8,2.2,1.8,2.9,3.1c0.7,1.3,1.2,2.7,1.5,4.2c0.3,1.6,0.4,3.1,0.4,4.6c0,1.5-0.1,3-0.4,4.6
				c-0.3,1.6-0.8,3-1.5,4.2c-0.7,1.3-1.7,2.3-2.9,3.1s-2.8,1.2-4.7,1.2s-3.5-0.4-4.7-1.2s-2.2-1.8-2.9-3.1c-0.7-1.3-1.2-2.7-1.5-4.2
				C55.4,175.2,55.2,173.7,55.2,172.2z M60.6,172.2c0,0.7,0,1.5,0.1,2.4c0.1,0.9,0.2,1.8,0.5,2.7c0.3,0.9,0.7,1.6,1.2,2.2
				c0.5,0.6,1.3,0.9,2.3,0.9c1,0,1.7-0.3,2.3-0.9c0.6-0.6,1-1.3,1.2-2.2c0.3-0.9,0.4-1.8,0.5-2.7s0.1-1.7,0.1-2.4
				c0-0.7,0-1.5-0.1-2.4c-0.1-0.9-0.2-1.8-0.5-2.7c-0.3-0.9-0.7-1.6-1.2-2.2c-0.6-0.6-1.3-0.9-2.3-0.9c-1,0-1.7,0.3-2.3,0.9
				s-0.9,1.3-1.2,2.2c-0.3,0.9-0.4,1.8-0.5,2.7C60.7,170.7,60.6,171.5,60.6,172.2z"/>
		</g>
	</g>
	<g>
		<g>
			<path d="M40.5,295.5h1.8c0.5,0,1,0,1.5-0.1c0.5-0.1,0.9-0.2,1.3-0.4c0.4-0.2,0.7-0.5,1-0.9c0.2-0.4,0.4-0.9,0.4-1.5
				c0-0.8-0.3-1.4-0.9-1.9c-0.6-0.5-1.4-0.8-2.2-0.8c-0.8,0-1.5,0.2-2.1,0.7c-0.6,0.5-0.9,1-1.1,1.7l-5.9-1.2c0.3-1.1,0.7-2,1.3-2.8
				c0.6-0.8,1.3-1.4,2.1-1.9c0.8-0.5,1.7-0.8,2.6-1.1c1-0.2,2-0.3,3.1-0.3c1.1,0,2.2,0.1,3.3,0.4c1,0.3,2,0.7,2.8,1.3
				c0.8,0.6,1.4,1.3,1.9,2.2c0.5,0.9,0.7,1.9,0.7,3.2c0,1.4-0.4,2.6-1.1,3.6c-0.7,1-1.8,1.7-3.2,1.9v0.1c0.8,0.1,1.4,0.3,2,0.7
				c0.6,0.4,1.1,0.8,1.5,1.3c0.4,0.5,0.7,1.1,0.9,1.8c0.2,0.7,0.3,1.4,0.3,2.1c0,1.3-0.2,2.4-0.7,3.3c-0.5,1-1.2,1.8-2,2.4
				c-0.8,0.6-1.8,1.1-2.9,1.4c-1.1,0.3-2.3,0.5-3.5,0.5c-2.3,0-4.2-0.5-5.9-1.6c-1.6-1.1-2.7-2.7-3.3-5l5.7-1.3
				c0.2,0.9,0.6,1.6,1.2,2.2c0.6,0.5,1.5,0.8,2.6,0.8c1.2,0,2-0.3,2.6-0.9c0.6-0.6,0.8-1.4,0.8-2.4c0-0.7-0.2-1.3-0.5-1.7
				c-0.3-0.4-0.7-0.7-1.2-0.9c-0.5-0.2-1-0.3-1.6-0.3c-0.6,0-1.2-0.1-1.8-0.1h-1.3V295.5z"/>
		</g>
		<g>
			<path d="M55.2,298.2c0-1.5,0.1-3,0.4-4.6c0.3-1.6,0.8-3,1.5-4.2c0.7-1.3,1.7-2.3,2.9-3.1c1.2-0.8,2.8-1.2,4.7-1.2
				s3.5,0.4,4.7,1.2c1.2,0.8,2.2,1.8,2.9,3.1c0.7,1.3,1.2,2.7,1.5,4.2c0.3,1.6,0.4,3.1,0.4,4.6c0,1.5-0.1,3-0.4,4.6
				c-0.3,1.6-0.8,3-1.5,4.2c-0.7,1.3-1.7,2.3-2.9,3.1s-2.8,1.2-4.7,1.2s-3.5-0.4-4.7-1.2s-2.2-1.8-2.9-3.1c-0.7-1.3-1.2-2.7-1.5-4.2
				C55.4,301.2,55.2,299.7,55.2,298.2z M60.6,298.2c0,0.7,0,1.5,0.1,2.4c0.1,0.9,0.2,1.8,0.5,2.7c0.3,0.9,0.7,1.6,1.2,2.2
				c0.5,0.6,1.3,0.9,2.3,0.9c1,0,1.7-0.3,2.3-0.9c0.6-0.6,1-1.3,1.2-2.2c0.3-0.9,0.4-1.8,0.5-2.7s0.1-1.7,0.1-2.4
				c0-0.7,0-1.5-0.1-2.4c-0.1-0.9-0.2-1.8-0.5-2.7c-0.3-0.9-0.7-1.6-1.2-2.2c-0.6-0.6-1.3-0.9-2.3-0.9c-1,0-1.7,0.3-2.3,0.9
				s-0.9,1.3-1.2,2.2c-0.3,0.9-0.4,1.8-0.5,2.7C60.7,296.7,60.6,297.5,60.6,298.2z"/>
		</g>
	</g>
	<g>
		<g>
			<path d="M34.5,436.9l9.9-8.9c0.5-0.5,1-1,1.5-1.5c0.5-0.6,0.8-1.2,0.8-2c0-0.9-0.3-1.5-0.9-2c-0.6-0.5-1.4-0.7-2.2-0.7
				c-1,0-1.8,0.3-2.4,0.9s-0.9,1.4-1,2.3l-5.4-0.4c0.1-1.3,0.3-2.5,0.8-3.4c0.5-1,1.1-1.8,1.9-2.4c0.8-0.6,1.7-1.1,2.8-1.5
				s2.2-0.5,3.5-0.5c1.2,0,2.2,0.2,3.2,0.5c1,0.3,1.9,0.8,2.6,1.4c0.7,0.6,1.3,1.4,1.7,2.4c0.4,1,0.6,2.1,0.6,3.3
				c0,0.8-0.1,1.6-0.3,2.2c-0.2,0.7-0.4,1.3-0.7,1.8c-0.3,0.5-0.7,1-1.1,1.5c-0.4,0.5-0.9,0.9-1.3,1.3l-7.7,6.7h11.3v4.8H34.5V436.9
				z"/>
		</g>
		<g>
			<path d="M55.2,429.9c0-1.5,0.1-3,0.4-4.6c0.3-1.6,0.8-3,1.5-4.2c0.7-1.3,1.7-2.3,2.9-3.1c1.2-0.8,2.8-1.2,4.7-1.2
				s3.5,0.4,4.7,1.2c1.2,0.8,2.2,1.8,2.9,3.1c0.7,1.3,1.2,2.7,1.5,4.2c0.3,1.6,0.4,3.1,0.4,4.6c0,1.5-0.1,3-0.4,4.6
				c-0.3,1.6-0.8,3-1.5,4.2c-0.7,1.3-1.7,2.3-2.9,3.1s-2.8,1.2-4.7,1.2s-3.5-0.4-4.7-1.2s-2.2-1.8-2.9-3.1c-0.7-1.3-1.2-2.7-1.5-4.2
				C55.4,433,55.2,431.4,55.2,429.9z M60.6,429.9c0,0.7,0,1.5,0.1,2.4c0.1,0.9,0.2,1.8,0.5,2.7c0.3,0.9,0.7,1.6,1.2,2.2
				s1.3,0.9,2.3,0.9c1,0,1.7-0.3,2.3-0.9c0.6-0.6,1-1.3,1.2-2.2c0.3-0.9,0.4-1.8,0.5-2.7c0.1-0.9,0.1-1.7,0.1-2.4
				c0-0.7,0-1.5-0.1-2.4c-0.1-0.9-0.2-1.8-0.5-2.7c-0.3-0.9-0.7-1.6-1.2-2.2c-0.6-0.6-1.3-0.9-2.3-0.9c-1,0-1.7,0.3-2.3,0.9
				c-0.5,0.6-0.9,1.3-1.2,2.2c-0.3,0.9-0.4,1.8-0.5,2.7C60.7,428.4,60.6,429.2,60.6,429.9z"/>
		</g>
	</g>
	<g>
		<g>
			<path d="M43.1,575.3l-5.1,4.5l-3.1-3.5l8.3-7h5v25.5h-5.2V575.3z"/>
		</g>
		<g>
			<path d="M55.2,582c0-1.5,0.1-3,0.4-4.6c0.3-1.6,0.8-3,1.5-4.2c0.7-1.3,1.7-2.3,2.9-3.1s2.8-1.2,4.7-1.2s3.5,0.4,4.7,1.2
				s2.2,1.8,2.9,3.1c0.7,1.3,1.2,2.7,1.5,4.2c0.3,1.6,0.4,3.1,0.4,4.6s-0.1,3-0.4,4.6c-0.3,1.6-0.8,3-1.5,4.2
				c-0.7,1.3-1.7,2.3-2.9,3.1s-2.8,1.2-4.7,1.2s-3.5-0.4-4.7-1.2s-2.2-1.8-2.9-3.1c-0.7-1.3-1.2-2.7-1.5-4.2
				C55.4,585,55.2,583.5,55.2,582z M60.6,582c0,0.7,0,1.5,0.1,2.4c0.1,0.9,0.2,1.8,0.5,2.7c0.3,0.9,0.7,1.6,1.2,2.2
				c0.5,0.6,1.3,0.9,2.3,0.9c1,0,1.7-0.3,2.3-0.9c0.6-0.6,1-1.3,1.2-2.2c0.3-0.9,0.4-1.8,0.5-2.7c0.1-0.9,0.1-1.7,0.1-2.4
				s0-1.5-0.1-2.4s-0.2-1.8-0.5-2.7c-0.3-0.9-0.7-1.6-1.2-2.2c-0.6-0.6-1.3-0.9-2.3-0.9c-1,0-1.7,0.3-2.3,0.9
				c-0.5,0.6-0.9,1.3-1.2,2.2c-0.3,0.9-0.4,1.8-0.5,2.7C60.7,580.5,60.6,581.3,60.6,582z"/>
		</g>
	</g>
	<g>
		<g>
			<rect x="0.1" y="580.8" width="28.8" height="4"/>
		</g>
		<g>
			<rect x="79.3" y="580.8" width="28.8" height="4"/>
		</g>
	</g>
	<g>
		<g>
			<rect x="0.1" y="428.7" width="28.8" height="4"/>
		</g>
		<g>
			<rect x="79.3" y="428.7" width="28.8" height="4"/>
		</g>
	</g>
	<g>
		<g>
			<rect x="0.1" y="295" width="28.8" height="4"/>
		</g>
		<g>
			<rect x="79.3" y="295" width="28.8" height="4"/>
		</g>
	</g>
	<g>
		<rect x="79.3" y="171" width="28.8" height="4"/>
	</g>
	<g>
		<rect x="79.3" y="42.3" width="28.8" height="4"/>
	</g>
	<g>
		<rect x="0.1" y="502.8" width="108" height="4"/>
	</g>
	<g>
		<rect x="0.1" y="361.9" width="108" height="4"/>
	</g>
	<g>
		<rect x="0.1" y="105.3" width="108" height="4"/>
	</g>
	<g>
		<rect x="0.1" y="231.5" width="108" height="4"/>
	</g>
</g>
<g id="Layer_2" display="none">
	<g display="inline">
		<line fill="none" stroke="#000000" stroke-width="2" stroke-miterlimit="10" x1="0.1" y1="445.6" x2="18.1" y2="445.6"/>
		<line fill="none" stroke="#000000" stroke-width="2" stroke-miterlimit="10" x1="90.1" y1="445.6" x2="108.1" y2="445.6"/>
	</g>
	<g display="inline">
		<line fill="none" stroke="#000000" stroke-width="2" stroke-miterlimit="10" x1="0.1" y1="460.4" x2="18.1" y2="460.4"/>
		<line fill="none" stroke="#000000" stroke-width="2" stroke-miterlimit="10" x1="90.1" y1="460.4" x2="108.1" y2="460.4"/>
	</g>
	<g display="inline">
		<line fill="none" stroke="#000000" stroke-width="2" stroke-miterlimit="10" x1="0.1" y1="475.2" x2="18.1" y2="475.2"/>
		<line fill="none" stroke="#000000" stroke-width="2" stroke-miterlimit="10" x1="90.1" y1="475.2" x2="108.1" y2="475.2"/>
	</g>
	<g display="inline">
		<line fill="none" stroke="#000000" stroke-width="2" stroke-miterlimit="10" x1="0.1" y1="490" x2="18.1" y2="490"/>
		<line fill="none" stroke="#000000" stroke-width="2" stroke-miterlimit="10" x1="90.1" y1="490" x2="108.1" y2="490"/>
	</g>
	<g display="inline">
		<line fill="none" stroke="#000000" stroke-width="2" stroke-miterlimit="10" x1="0.1" y1="520.4" x2="18.1" y2="520.4"/>
		<line fill="none" stroke="#000000" stroke-width="2" stroke-miterlimit="10" x1="90.1" y1="520.4" x2="108.1" y2="520.4"/>
	</g>
	<g display="inline">
		<line fill="none" stroke="#000000" stroke-width="2" stroke-miterlimit="10" x1="0.1" y1="536" x2="18.1" y2="536"/>
		<line fill="none" stroke="#000000" stroke-width="2" stroke-miterlimit="10" x1="90.1" y1="536" x2="108.1" y2="536"/>
	</g>
	<g display="inline">
		<line fill="none" stroke="#000000" stroke-width="2" stroke-miterlimit="10" x1="0.1" y1="551.6" x2="18.1" y2="551.6"/>
		<line fill="none" stroke="#000000" stroke-width="2" stroke-miterlimit="10" x1="90.1" y1="551.6" x2="108.1" y2="551.6"/>
	</g>
	<g display="inline">
		<line fill="none" stroke="#000000" stroke-width="2" stroke-miterlimit="10" x1="0.1" y1="567.2" x2="18.1" y2="567.2"/>
		<line fill="none" stroke="#000000" stroke-width="2" stroke-miterlimit="10" x1="90.1" y1="567.2" x2="108.1" y2="567.2"/>
	</g>
	<g display="inline">
		<line fill="none" stroke="#000000" stroke-width="2" stroke-miterlimit="10" x1="0.1" y1="598.5" x2="18.1" y2="598.5"/>
		<line fill="none" stroke="#000000" stroke-width="2" stroke-miterlimit="10" x1="90.1" y1="598.5" x2="108.1" y2="598.5"/>
	</g>
	<g display="inline">
		<line fill="none" stroke="#000000" stroke-width="2" stroke-miterlimit="10" x1="0.1" y1="614.1" x2="18.1" y2="614.1"/>
		<line fill="none" stroke="#000000" stroke-width="2" stroke-miterlimit="10" x1="90.1" y1="614.1" x2="108.1" y2="614.1"/>
	</g>
	<g display="inline">
		<line fill="none" stroke="#000000" stroke-width="2" stroke-miterlimit="10" x1="0.1" y1="629.7" x2="18.1" y2="629.7"/>
		<line fill="none" stroke="#000000" stroke-width="2" stroke-miterlimit="10" x1="90.1" y1="629.7" x2="108.1" y2="629.7"/>
	</g>
	<g display="inline">
		<line fill="none" stroke="#000000" stroke-width="2" stroke-miterlimit="10" x1="0.1" y1="645.4" x2="18.1" y2="645.4"/>
		<line fill="none" stroke="#000000" stroke-width="2" stroke-miterlimit="10" x1="90.1" y1="645.4" x2="108.1" y2="645.4"/>
	</g>
	<g display="inline">
		<line fill="none" stroke="#000000" stroke-width="2" stroke-miterlimit="10" x1="0.1" y1="310.4" x2="18.1" y2="310.4"/>
		<line fill="none" stroke="#000000" stroke-width="2" stroke-miterlimit="10" x1="90.1" y1="310.4" x2="108.1" y2="310.4"/>
	</g>
	<g display="inline">
		<line fill="none" stroke="#000000" stroke-width="2" stroke-miterlimit="10" x1="0.1" y1="323.7" x2="18.1" y2="323.7"/>
		<line fill="none" stroke="#000000" stroke-width="2" stroke-miterlimit="10" x1="90.1" y1="323.7" x2="108.1" y2="323.7"/>
	</g>
	<g display="inline">
		<line fill="none" stroke="#000000" stroke-width="2" stroke-miterlimit="10" x1="0.1" y1="337.1" x2="18.1" y2="337.1"/>
		<line fill="none" stroke="#000000" stroke-width="2" stroke-miterlimit="10" x1="90.1" y1="337.1" x2="108.1" y2="337.1"/>
	</g>
	<g display="inline">
		<line fill="none" stroke="#000000" stroke-width="2" stroke-miterlimit="10" x1="0.1" y1="350.5" x2="18.1" y2="350.5"/>
		<line fill="none" stroke="#000000" stroke-width="2" stroke-miterlimit="10" x1="90.1" y1="350.5" x2="108.1" y2="350.5"/>
	</g>
	<g display="inline">
		<line fill="none" stroke="#000000" stroke-width="2" stroke-miterlimit="10" x1="0.1" y1="377.2" x2="18.1" y2="377.2"/>
		<line fill="none" stroke="#000000" stroke-width="2" stroke-miterlimit="10" x1="90.1" y1="377.2" x2="108.1" y2="377.2"/>
	</g>
	<g display="inline">
		<line fill="none" stroke="#000000" stroke-width="2" stroke-miterlimit="10" x1="0.1" y1="390.6" x2="18.1" y2="390.6"/>
		<line fill="none" stroke="#000000" stroke-width="2" stroke-miterlimit="10" x1="90.1" y1="390.6" x2="108.1" y2="390.6"/>
	</g>
	<g display="inline">
		<line fill="none" stroke="#000000" stroke-width="2" stroke-miterlimit="10" x1="0.1" y1="404" x2="18.1" y2="404"/>
		<line fill="none" stroke="#000000" stroke-width="2" stroke-miterlimit="10" x1="90.1" y1="404" x2="108.1" y2="404"/>
	</g>
	<g display="inline">
		<line fill="none" stroke="#000000" stroke-width="2" stroke-miterlimit="10" x1="0.1" y1="417.4" x2="18.1" y2="417.4"/>
		<line fill="none" stroke="#000000" stroke-width="2" stroke-miterlimit="10" x1="90.1" y1="417.4" x2="108.1" y2="417.4"/>
	</g>
	<g display="inline">
		<line fill="none" stroke="#000000" stroke-width="2" stroke-miterlimit="10" x1="0.1" y1="185.1" x2="18.1" y2="185.1"/>
		<line fill="none" stroke="#000000" stroke-width="2" stroke-miterlimit="10" x1="90.1" y1="185.1" x2="108.1" y2="185.1"/>
	</g>
	<g display="inline">
		<line fill="none" stroke="#000000" stroke-width="2" stroke-miterlimit="10" x1="0.1" y1="197.2" x2="18.1" y2="197.2"/>
		<line fill="none" stroke="#000000" stroke-width="2" stroke-miterlimit="10" x1="90.1" y1="197.2" x2="108.1" y2="197.2"/>
	</g>
	<g display="inline">
		<line fill="none" stroke="#000000" stroke-width="2" stroke-miterlimit="10" x1="0.1" y1="209.3" x2="18.1" y2="209.3"/>
		<line fill="none" stroke="#000000" stroke-width="2" stroke-miterlimit="10" x1="90.1" y1="209.3" x2="108.1" y2="209.3"/>
	</g>
	<g display="inline">
		<line fill="none" stroke="#000000" stroke-width="2" stroke-miterlimit="10" x1="0.1" y1="221.4" x2="18.1" y2="221.4"/>
		<line fill="none" stroke="#000000" stroke-width="2" stroke-miterlimit="10" x1="90.1" y1="221.4" x2="108.1" y2="221.4"/>
	</g>
	<g display="inline">
		<line fill="none" stroke="#000000" stroke-width="2" stroke-miterlimit="10" x1="0.1" y1="246.6" x2="18.1" y2="246.6"/>
		<line fill="none" stroke="#000000" stroke-width="2" stroke-miterlimit="10" x1="90.1" y1="246.6" x2="108.1" y2="246.6"/>
	</g>
	<g display="inline">
		<line fill="none" stroke="#000000" stroke-width="2" stroke-miterlimit="10" x1="0.1" y1="259.7" x2="18.1" y2="259.7"/>
		<line fill="none" stroke="#000000" stroke-width="2" stroke-miterlimit="10" x1="90.1" y1="259.7" x2="108.1" y2="259.7"/>
	</g>
	<g display="inline">
		<line fill="none" stroke="#000000" stroke-width="2" stroke-miterlimit="10" x1="0.1" y1="272.8" x2="18.1" y2="272.8"/>
		<line fill="none" stroke="#000000" stroke-width="2" stroke-miterlimit="10" x1="90.1" y1="272.8" x2="108.1" y2="272.8"/>
	</g>
	<g display="inline">
		<line fill="none" stroke="#000000" stroke-width="2" stroke-miterlimit="10" x1="0.1" y1="285.9" x2="18.1" y2="285.9"/>
		<line fill="none" stroke="#000000" stroke-width="2" stroke-miterlimit="10" x1="90.1" y1="285.9" x2="108.1" y2="285.9"/>
	</g>
	<g display="inline">
		<line fill="none" stroke="#000000" stroke-width="2" stroke-miterlimit="10" x1="0.1" y1="120.4" x2="18.1" y2="120.4"/>
		<line fill="none" stroke="#000000" stroke-width="2" stroke-miterlimit="10" x1="90.1" y1="120.4" x2="108.1" y2="120.4"/>
	</g>
	<g display="inline">
		<line fill="none" stroke="#000000" stroke-width="2" stroke-miterlimit="10" x1="0.1" y1="133.6" x2="18.1" y2="133.6"/>
		<line fill="none" stroke="#000000" stroke-width="2" stroke-miterlimit="10" x1="90.1" y1="133.6" x2="108.1" y2="133.6"/>
	</g>
	<g display="inline">
		<line fill="none" stroke="#000000" stroke-width="2" stroke-miterlimit="10" x1="0.1" y1="146.7" x2="18.1" y2="146.7"/>
		<line fill="none" stroke="#000000" stroke-width="2" stroke-miterlimit="10" x1="90.1" y1="146.7" x2="108.1" y2="146.7"/>
	</g>
	<g display="inline">
		<line fill="none" stroke="#000000" stroke-width="2" stroke-miterlimit="10" x1="0.1" y1="159.9" x2="18.1" y2="159.9"/>
		<line fill="none" stroke="#000000" stroke-width="2" stroke-miterlimit="10" x1="90.1" y1="159.9" x2="108.1" y2="159.9"/>
	</g>
	<g display="inline">
		<line fill="none" stroke="#000000" stroke-width="2" stroke-miterlimit="10" x1="0.1" y1="56.9" x2="18.1" y2="56.9"/>
		<line fill="none" stroke="#000000" stroke-width="2" stroke-miterlimit="10" x1="90.1" y1="56.9" x2="108.1" y2="56.9"/>
	</g>
	<g display="inline">
		<line fill="none" stroke="#000000" stroke-width="2" stroke-miterlimit="10" x1="0.1" y1="69.5" x2="18.1" y2="69.5"/>
		<line fill="none" stroke="#000000" stroke-width="2" stroke-miterlimit="10" x1="90.1" y1="69.5" x2="108.1" y2="69.5"/>
	</g>
	<g display="inline">
		<line fill="none" stroke="#000000" stroke-width="2" stroke-miterlimit="10" x1="0.1" y1="82.1" x2="18.1" y2="82.1"/>
		<line fill="none" stroke="#000000" stroke-width="2" stroke-miterlimit="10" x1="90.1" y1="82.1" x2="108.1" y2="82.1"/>
	</g>
	<g display="inline">
		<line fill="none" stroke="#000000" stroke-width="2" stroke-miterlimit="10" x1="0.1" y1="94.7" x2="18.1" y2="94.7"/>
		<line fill="none" stroke="#000000" stroke-width="2" stroke-miterlimit="10" x1="90.1" y1="94.7" x2="108.1" y2="94.7"/>
	</g>
	<g display="inline">
		<line fill="none" stroke="#000000" stroke-width="2" stroke-miterlimit="10" x1="0.3" y1="6.9" x2="18.3" y2="6.9"/>
		<line fill="none" stroke="#000000" stroke-width="2" stroke-miterlimit="10" x1="90.3" y1="6.9" x2="108.3" y2="6.9"/>
	</g>
	<g display="inline">
		<line fill="none" stroke="#000000" stroke-width="2" stroke-miterlimit="10" x1="0.3" y1="19.5" x2="18.3" y2="19.5"/>
		<line fill="none" stroke="#000000" stroke-width="2" stroke-miterlimit="10" x1="90.3" y1="19.5" x2="108.3" y2="19.5"/>
	</g>
	<g display="inline">
		<line fill="none" stroke="#000000" stroke-width="2" stroke-miterlimit="10" x1="0.3" y1="32.1" x2="18.3" y2="32.1"/>
		<line fill="none" stroke="#000000" stroke-width="2" stroke-miterlimit="10" x1="90.3" y1="32.1" x2="108.3" y2="32.1"/>
	</g>
</g>
</svg>
